<?xml version="1.0" standalone="no"?>
<!DOCTYPE svg PUBLIC "-//W3C//DTD SVG 20010904//EN"
 "http://www.w3.org/TR/2001/REC-SVG-20010904/DTD/svg10.dtd">
<svg version="1.0" xmlns="http://www.w3.org/2000/svg"
 width="192.000000pt" height="192.000000pt" viewBox="0 0 192.000000 192.000000"
 preserveAspectRatio="xMidYMid meet">
<metadata>
Created by potrace 1.11, written by Peter Selinger 2001-2013
</metadata>
<g transform="translate(0.000000,192.000000) scale(0.100000,-0.100000)"
fill="#000000" stroke="none">
<path d="M837 1824 c-1 -1 -16 -5 -32 -8 -67 -12 -91 -19 -102 -28 -7 -6 -13
-8 -13 -5 0 7 -58 -16 -133 -54 -193 -97 -349 -280 -422 -494 -9 -27 -19 -59
-21 -70 -2 -11 -7 -31 -10 -45 -19 -74 -11 -305 13 -380 2 -8 4 -16 4 -17 0
-2 6 -20 13 -40 63 -179 189 -342 340 -442 164 -109 311 -152 506 -147 63 2
126 6 140 10 14 3 39 9 55 12 17 3 35 9 40 13 6 3 12 6 15 6 9 0 74 27 127 52
107 50 258 181 319 278 10 17 21 32 24 35 10 8 68 134 84 182 57 166 57 386 1
553 -62 181 -189 347 -344 448 -157 103 -304 146 -493 145 -59 -1 -109 -2
-111 -4z"/>
</g>
</svg>
